<svg id="Layer_1" data-name="Layer 1" xmlns="http://www.w3.org/2000/svg" viewBox="0 0 1126 2437"><defs><style>.cls-1{fill:#748275;}.cls-1,.cls-4{stroke:#000;}.cls-1,.cls-18,.cls-19,.cls-22,.cls-23,.cls-24,.cls-4{stroke-miterlimit:10;}.cls-2{fill:#bfe8e8;}.cls-3{fill:#cf7e54;}.cls-4{fill:none;}.cls-5{fill:#5e5047;}.cls-6{fill:#636363;}.cls-7{fill:#b2b2b2;}.cls-8{fill:#faf8f5;}.cls-9{fill:#f9f0c8;}.cls-10{fill:#455054;}.cls-11{fill:#83979b;}.cls-12{fill:#d6d6d6;}.cls-13{fill:#c6c6c6;}.cls-14{fill:#966442;}.cls-15{fill:#515151;}.cls-16{fill:#a4a5a5;}.cls-17{fill:#dbd4bd;}.cls-18{fill:#682f2a;stroke:#adadad;}.cls-19{stroke:#fff;}.cls-20,.cls-23{fill:#fff;}.cls-21{fill:#ec6610;}.cls-22{stroke:#ffce00;}.cls-23{stroke:#c63526;stroke-width:2px;}.cls-24{fill:#3a3832;stroke:#d8b830;}</style></defs><title>overview</title><rect class="cls-1" x="0.5" y="0.5" width="1125" height="2436"/><polygon class="cls-2" points="0.5 2095.58 205.5 2095.5 492.5 1987.5 1125 1987.5 1125 1741.42 459.5 1760.5 192.5 1814.5 0 1812.25 0.5 2095.58"/><polygon class="cls-3" points="798.5 1718.5 184.5 1718.5 184.5 1537.5 471.5 1537.5 471.5 1432.5 487.5 1432.5 487.5 1447.5 501.5 1447.5 501.5 1432.5 517.5 1432.5 517.5 1447.5 531.5 1447.5 531.5 1432.5 546.5 1432.5 546.5 1448.5 560.5 1448.5 560.5 1432.5 575.5 1432.5 577.5 1537.5 798.5 1537.5 798.5 1718.5"/><path class="cls-4" d="M709.5,1537.5" transform="translate(0 0)"/><path class="cls-4" d="M471.5,1537.5" transform="translate(0 0)"/><rect class="cls-5" x="1105" y="1718" width="20" height="276"/><polyline class="cls-6" points="1125 1741 1031.27 1682.68 859 1575.5 860 1472 549.5 1385.5 0.5 1393.07 0.5 1279.34 585.5 1279.5 846 1344 903 1253 1125 1218"/><polyline class="cls-7" points="505.59 1759.18 544 1850 544 1882 524.79 1987.5 562.5 1987.5 581 1888 581 1842 553.55 1757.8"/><rect class="cls-8" x="668.19" y="2153.58" width="299.81" height="146.42"/><rect class="cls-3" x="313.76" y="2118.72" width="354.43" height="181.28"/><rect class="cls-9" x="43" y="2172.17" width="270.76" height="127.83"/><polygon class="cls-10" points="668.19 2139.01 668.19 2153.58 968 2153.58 946.71 2139 668.19 2139.01"/><polygon class="cls-10" points="43 2172 84 2131 313.76 2131 313.76 2172 43 2172"/><polygon class="cls-10" points="645 2096 668 2119 314 2119 336.5 2096.5 645 2096"/><rect class="cls-11" x="335" y="2222" width="31" height="55"/><rect class="cls-11" x="382" y="2222" width="31" height="55"/><rect class="cls-11" x="429" y="2222" width="31" height="55"/><rect class="cls-11" x="476" y="2222" width="31" height="55"/><rect class="cls-11" x="524" y="2222" width="31" height="55"/><rect class="cls-11" x="571" y="2222" width="31" height="55"/><rect class="cls-11" x="616" y="2222" width="31" height="55"/><rect class="cls-11" x="336" y="2149" width="31" height="55"/><rect class="cls-11" x="383" y="2149" width="31" height="55"/><rect class="cls-11" x="430" y="2149" width="31" height="55"/><rect class="cls-11" x="477" y="2149" width="31" height="55"/><rect class="cls-11" x="525" y="2149" width="31" height="55"/><rect class="cls-11" x="572" y="2149" width="31" height="55"/><rect class="cls-11" x="617" y="2149" width="31" height="55"/><rect class="cls-11" x="695" y="2232.62" width="24.46" height="37.38"/><rect class="cls-11" x="732.09" y="2232.62" width="24.46" height="37.38"/><rect class="cls-11" x="769.17" y="2232.62" width="24.46" height="37.38"/><rect class="cls-11" x="806.26" y="2232.62" width="24.46" height="37.38"/><rect class="cls-11" x="844.13" y="2232.62" width="24.46" height="37.38"/><rect class="cls-11" x="881.22" y="2232.62" width="24.46" height="37.38"/><rect class="cls-11" x="916.73" y="2232.62" width="24.46" height="37.38"/><rect class="cls-11" x="695.79" y="2183" width="24.46" height="37.38"/><rect class="cls-11" x="732.88" y="2183" width="24.46" height="37.38"/><rect class="cls-11" x="769.96" y="2183" width="24.46" height="37.38"/><rect class="cls-11" x="807.05" y="2183" width="24.46" height="37.38"/><rect class="cls-11" x="844.92" y="2183" width="24.46" height="37.38"/><rect class="cls-11" x="882.01" y="2183" width="24.46" height="37.38"/><rect class="cls-11" x="917.52" y="2183" width="24.46" height="37.38"/><rect class="cls-11" x="67" y="2184" width="31" height="50"/><rect class="cls-11" x="114" y="2184" width="31" height="50"/><rect class="cls-11" x="161" y="2184" width="31" height="50"/><rect class="cls-11" x="208" y="2184" width="31" height="50"/><rect class="cls-11" x="256" y="2184" width="31" height="50"/><polygon class="cls-10" points="548 1029.59 581 1068.38 195 1068.38 228.5 1029 548 1029.59"/><rect class="cls-9" x="195" y="1068" width="386" height="120"/><rect class="cls-12" x="195" y="1188" width="130" height="60"/><rect class="cls-12" x="451" y="1188" width="130" height="60"/><rect class="cls-11" x="195" y="1193" width="62.86" height="48"/><rect class="cls-11" x="262.14" y="1193" width="62.86" height="48"/><rect class="cls-11" x="451" y="1193" width="62.86" height="48"/><rect class="cls-11" x="518.14" y="1193" width="62.86" height="48"/><rect class="cls-12" x="325" y="1188" width="126" height="5"/><rect class="cls-11" x="391.4" y="1135.84" width="57.57" height="39.16"/><rect class="cls-11" x="391.4" y="1082" width="57.57" height="39.16"/><rect class="cls-11" x="328" y="1135.84" width="57.57" height="39.16"/><rect class="cls-11" x="328" y="1082" width="57.57" height="39.16"/><rect class="cls-11" x="518.4" y="1135.84" width="57.57" height="39.16"/><rect class="cls-11" x="518.4" y="1082" width="57.57" height="39.16"/><rect class="cls-11" x="455" y="1135.84" width="57.57" height="39.16"/><rect class="cls-11" x="455" y="1082" width="57.57" height="39.16"/><rect class="cls-11" x="265.4" y="1135.84" width="57.57" height="39.16"/><rect class="cls-11" x="265.4" y="1082" width="57.57" height="39.16"/><rect class="cls-11" x="202" y="1135.84" width="57.57" height="39.16"/><rect class="cls-11" x="202" y="1082" width="57.57" height="39.16"/><polygon class="cls-3" points="581 1135.84 612.68 1135.84 659.62 1121.5 677.61 1121.5 677.61 1082.5 658.84 1082.5 611.9 1095.5 581 1095.5 581 1135.84"/><polygon class="cls-11" points="581 1125 612.29 1125 660.01 1111 677.61 1111 678 1082 659.23 1082 611.51 1095 581 1095 581 1125"/><rect class="cls-10" x="677.5" y="1199.5" width="188" height="47"/><rect class="cls-13" x="677.5" y="1011.5" width="188" height="188"/><rect class="cls-14" x="684.5" y="1029.5" width="33" height="170"/><rect class="cls-11" x="690" y="1076" width="21" height="31"/><rect class="cls-11" x="690" y="1037" width="21" height="31"/><rect class="cls-11" x="690" y="1115" width="21" height="31"/><rect class="cls-11" x="690" y="1154" width="21" height="31"/><rect class="cls-11" x="733" y="1076" width="21" height="31"/><rect class="cls-11" x="733" y="1037" width="21" height="31"/><rect class="cls-11" x="733" y="1115" width="21" height="31"/><rect class="cls-11" x="733" y="1154" width="21" height="31"/><rect class="cls-11" x="764" y="1076" width="21" height="31"/><rect class="cls-11" x="764" y="1037" width="21" height="31"/><rect class="cls-11" x="764" y="1115" width="21" height="31"/><rect class="cls-11" x="764" y="1154" width="21" height="31"/><rect class="cls-11" x="794" y="1076" width="21" height="31"/><rect class="cls-11" x="794" y="1037" width="21" height="31"/><rect class="cls-11" x="794" y="1115" width="21" height="31"/><rect class="cls-11" x="794" y="1154" width="21" height="31"/><rect class="cls-11" x="824" y="1076" width="21" height="31"/><rect class="cls-11" x="824" y="1037" width="21" height="31"/><rect class="cls-11" x="824" y="1115" width="21" height="31"/><rect class="cls-11" x="824" y="1154" width="21" height="31"/><ellipse class="cls-15" cx="980" cy="1313.28" rx="82" ry="38.72"/><ellipse class="cls-16" cx="979.82" cy="1312.52" rx="51.45" ry="24.3"/><path class="cls-2" d="M976.4,1313s4.06-39.68,2.26-48.69-13.44-35.15-4.85-19.93,5.81-41.19,10.66-21.25-7.55,42.69-.09,33.24S976.4,1313,976.4,1313Z" transform="translate(0 0)"/><ellipse class="cls-2" cx="972.41" cy="1222.17" rx="1.52" ry="5.31"/><ellipse class="cls-2" cx="989.87" cy="1247.22" rx="1.52" ry="3.8"/><path class="cls-2" d="M999.25,1301.91s-1.2-35.43,1.18-30.5,3.56-25.56,4.23-19.34S999.25,1301.91,999.25,1301.91Z" transform="translate(0 0)"/><path class="cls-2" d="M959.75,1301.92c2.22-19.7-3-47.13-3-47.13s-2,7.56-.18,10.63-1.34,6.82-1.1,9.09C957.93,1297.34,959.75,1301.92,959.75,1301.92Z" transform="translate(0 0)"/><path class="cls-2" d="M953,1316.42s.84-35.71-2-30.53-4.82-25.36-5.53-19.05S953,1316.42,953,1316.42Z" transform="translate(0 0)"/><path class="cls-2" d="M1003.36,1317.14c-1.23-19.76,3.51-47,3.51-47s1.38,7.61-.12,10.62.87,6.86.62,9.12C1004.89,1312.6,1003.36,1317.14,1003.36,1317.14Z" transform="translate(0 0)"/><ellipse class="cls-2" cx="970.5" cy="1287" rx="1" ry="2.5"/><ellipse class="cls-2" cx="995.94" cy="1265.44" rx="1.52" ry="3.8"/><ellipse class="cls-2" cx="951.15" cy="1264.69" rx="1.52" ry="3.8"/><circle class="cls-11" cx="498.25" cy="1479.75" r="12.75"/><circle class="cls-11" cx="548.5" cy="1479.75" r="12.75"/><rect class="cls-11" x="200" y="1643" width="31" height="55"/><rect class="cls-11" x="247" y="1643" width="31" height="55"/><rect class="cls-11" x="294" y="1643" width="31" height="55"/><rect class="cls-11" x="341" y="1643" width="31" height="55"/><rect class="cls-11" x="389" y="1643" width="31" height="55"/><rect class="cls-11" x="201" y="1570" width="31" height="55"/><rect class="cls-11" x="248" y="1570" width="31" height="55"/><rect class="cls-11" x="295" y="1570" width="31" height="55"/><rect class="cls-11" x="342" y="1570" width="31" height="55"/><rect class="cls-11" x="390" y="1570" width="31" height="55"/><rect class="cls-11" x="624" y="1641" width="31" height="55"/><rect class="cls-11" x="671" y="1641" width="31" height="55"/><rect class="cls-11" x="719" y="1641" width="31" height="55"/><rect class="cls-11" x="625" y="1568" width="31" height="55"/><rect class="cls-11" x="672" y="1568" width="31" height="55"/><rect class="cls-11" x="720" y="1568" width="31" height="55"/><rect class="cls-11" x="514.98" y="1580" width="16.33" height="42"/><path class="cls-11" d="M539,1622v-42s37-1,37,43Z" transform="translate(0 0)"/><path class="cls-11" d="M506.38,1622v-42S472,1579,472,1623Z" transform="translate(0 0)"/><rect class="cls-11" x="472" y="1641" width="35.82" height="55"/><rect class="cls-11" x="540.18" y="1641" width="35.82" height="55"/><rect class="cls-17" x="574.5" y="1305.5" width="56" height="70" transform="translate(388.14 -113.46) rotate(15.82)"/><polygon class="cls-18" points="663.58 1318.43 675.64 1330.68 671.06 1347.25 654.42 1351.57 642.36 1339.32 646.94 1322.75 663.58 1318.43"/><rect class="cls-19" x="632.5" y="1359.5" width="29" height="29" transform="translate(-851.32 1622.05) rotate(-74.18)"/><rect class="cls-20" x="675.46" y="1347.61" width="28.14" height="35.17" transform="translate(398.16 -136.24) rotate(15.82)"/><rect class="cls-21" x="682.64" y="1364.85" width="9.89" height="9.89" transform="translate(-817.75 1658.04) rotate(-74.18)"/><rect class="cls-6" x="685.64" y="1353.85" width="9.89" height="9.89" transform="translate(-804.98 1652.93) rotate(-74.18)"/><circle class="cls-22" cx="730.5" cy="1374.5" r="17.5"/><rect class="cls-17" x="747.88" y="1395.75" width="17.76" height="22.2" transform="translate(412.06 -152.99) rotate(15.82)"/><rect class="cls-23" x="758.66" y="1347.72" width="17.76" height="42.61" transform="translate(402.16 -157.36) rotate(15.82)"/><polygon class="cls-24" points="781.46 1387.93 813.65 1420.65 825.89 1376.41 781.46 1387.93"/><path class="cls-1" d="M995.94,1745.12" transform="translate(0 0)"/></svg>