<svg id="Layer_1" data-name="Layer 1" xmlns="http://www.w3.org/2000/svg" viewBox="0 0 1054.34 1048.86"><defs><style>.cls-1{fill:#faf8f5;}.cls-1,.cls-2,.cls-3,.cls-4{stroke:#000;stroke-miterlimit:10;}.cls-1,.cls-2{stroke-width:6px;}.cls-2{fill:#fff;}.cls-3,.cls-4{fill:none;}.cls-3{stroke-width:4px;}</style></defs><title>TP_4</title><polygon class="cls-1" points="1039.71 439.91 1039.71 518.04 1050.9 518.04 1050.9 1045.86 935.52 1045.86 935.52 1034.57 772.78 1034.57 629.79 1034.57 432.66 1034.57 432.66 1045.86 355.16 1045.86 355.16 933 347.41 933 347.41 859.21 339.66 859.21 343.54 527.59 3.34 527.59 19.34 377 11.34 377 17.34 236 23.34 236 24.34 178 30.34 178 42.34 3 1051.34 3 1051.34 440 1039.71 439.91"/><polyline class="cls-2" points="821.86 608.33 821.43 607.89 661.27 604.42 656.54 638.71 576.46 638.71 576.46 863.55 621.7 863.55 621.7 904 772.34 904 772.78 863.55 822.34 863.55 821.34 607.89"/><polyline class="cls-3" points="432.66 1034.57 406.83 1034.57 406.83 961.65 495.34 962 495.34 969"/><line class="cls-3" x1="576.89" y1="639.15" x2="576.89" y2="525.42"/><polyline class="cls-3" points="615.63 525.42 615.63 598.35 620.8 598.35 631.99 536.71"/><line class="cls-3" x1="596.69" y1="521.95" x2="596.69" y2="600.08"/><line class="cls-3" x1="638.88" y1="602.69" x2="651.8" y2="540.18"/><line class="cls-4" x1="577.22" y1="527.38" x2="615.63" y2="527.38"/><line class="cls-4" x1="614.84" y1="556.07" x2="577.41" y2="556.07"/><line class="cls-4" x1="577.03" y1="553.47" x2="615.44" y2="553.47"/><line class="cls-4" x1="576.65" y1="550.86" x2="615.06" y2="550.86"/><line class="cls-4" x1="577.03" y1="548.26" x2="615.44" y2="548.26"/><line class="cls-4" x1="576.65" y1="545.66" x2="615.06" y2="545.66"/><line class="cls-4" x1="577.03" y1="543.05" x2="615.44" y2="543.05"/><line class="cls-4" x1="576.65" y1="540.45" x2="615.06" y2="540.45"/><line class="cls-4" x1="577.41" y1="537.84" x2="614.84" y2="537.84"/><line class="cls-4" x1="577.03" y1="535.24" x2="615.44" y2="535.24"/><line class="cls-4" x1="577.41" y1="532.63" x2="614.84" y2="532.63"/><line class="cls-4" x1="577.03" y1="530.03" x2="615.44" y2="530.03"/><line class="cls-4" x1="577.83" y1="558.21" x2="616.25" y2="558.21"/><line class="cls-4" x1="615.45" y1="586.9" x2="578.02" y2="586.9"/><line class="cls-4" x1="577.64" y1="584.3" x2="616.05" y2="584.3"/><line class="cls-4" x1="577.26" y1="581.69" x2="615.67" y2="581.69"/><line class="cls-4" x1="577.64" y1="579.09" x2="616.05" y2="579.09"/><line class="cls-4" x1="577.26" y1="576.48" x2="615.67" y2="576.48"/><line class="cls-4" x1="577.64" y1="573.88" x2="616.05" y2="573.88"/><line class="cls-4" x1="577.26" y1="571.27" x2="615.67" y2="571.27"/><line class="cls-4" x1="578.02" y1="568.67" x2="615.45" y2="568.67"/><line class="cls-4" x1="577.64" y1="566.07" x2="616.05" y2="566.07"/><line class="cls-4" x1="578.02" y1="563.46" x2="615.45" y2="563.46"/><line class="cls-4" x1="577.64" y1="560.86" x2="616.05" y2="560.86"/><line class="cls-4" x1="577.83" y1="589.46" x2="616.25" y2="589.46"/><line class="cls-4" x1="577.64" y1="597.32" x2="616.05" y2="597.32"/><line class="cls-4" x1="578.02" y1="594.71" x2="615.45" y2="594.71"/><line class="cls-4" x1="577.64" y1="592.11" x2="616.05" y2="592.11"/><line class="cls-4" x1="666.63" y1="568.52" x2="627.99" y2="561.28"/><line class="cls-4" x1="628.07" y1="558.65" x2="667.73" y2="566.08"/><line class="cls-4" x1="628.15" y1="556.02" x2="667.81" y2="563.44"/><line class="cls-4" x1="629.01" y1="553.53" x2="668.67" y2="560.96"/><line class="cls-4" x1="629.09" y1="550.89" x2="668.75" y2="558.32"/><line class="cls-4" x1="629.96" y1="548.41" x2="669.62" y2="555.84"/><line class="cls-4" x1="630.04" y1="545.77" x2="669.69" y2="553.2"/><line class="cls-4" x1="631.3" y1="543.36" x2="669.94" y2="550.6"/><line class="cls-4" x1="631.37" y1="540.73" x2="671.03" y2="548.15"/><line class="cls-4" x1="670.88" y1="545.48" x2="632.24" y2="538.24"/><line class="cls-4" x1="628.04" y1="563.47" x2="667.7" y2="570.89"/><line class="cls-4" x1="661.68" y1="598.95" x2="623.04" y2="591.71"/><line class="cls-4" x1="623.12" y1="589.08" x2="662.78" y2="596.51"/><line class="cls-4" x1="623.19" y1="586.44" x2="662.85" y2="593.87"/><line class="cls-4" x1="624.06" y1="583.96" x2="663.72" y2="591.39"/><line class="cls-4" x1="624.14" y1="581.32" x2="663.8" y2="588.75"/><line class="cls-4" x1="625" y1="578.83" x2="664.66" y2="586.26"/><line class="cls-4" x1="625.08" y1="576.2" x2="664.74" y2="583.63"/><line class="cls-4" x1="626.34" y1="573.79" x2="664.98" y2="581.03"/><line class="cls-4" x1="626.42" y1="571.15" x2="666.08" y2="578.58"/><line class="cls-4" x1="627.28" y1="568.67" x2="665.93" y2="575.9"/><line class="cls-4" x1="627.36" y1="566.03" x2="667.02" y2="573.46"/><line class="cls-4" x1="622.38" y1="594.19" x2="662.04" y2="601.62"/><line class="cls-4" x1="621.7" y1="596.76" x2="661.36" y2="604.19"/><polyline class="cls-3" points="1007.14 1009.83 1007.14 972.5 1022.64 972.5 1022.64 1009.83"/><line class="cls-3" x1="995.95" y1="1009.83" x2="995.95" y2="968.16"/><line class="cls-3" x1="1035.56" y1="968.16" x2="1035.56" y2="1009.83"/><line class="cls-4" x1="987.43" y1="971.57" x2="1006.28" y2="971.57"/><line class="cls-4" x1="1005.89" y1="1000.26" x2="987.53" y2="1000.26"/><line class="cls-4" x1="987.34" y1="997.66" x2="1006.19" y2="997.66"/><line class="cls-4" x1="987.15" y1="995.05" x2="1006" y2="995.05"/><line class="cls-4" x1="987.34" y1="992.45" x2="1006.19" y2="992.45"/><line class="cls-4" x1="987.15" y1="989.85" x2="1006" y2="989.85"/><line class="cls-4" x1="987.34" y1="987.24" x2="1006.19" y2="987.24"/><line class="cls-4" x1="987.15" y1="984.64" x2="1006" y2="984.64"/><line class="cls-4" x1="987.53" y1="982.03" x2="1005.89" y2="982.03"/><line class="cls-4" x1="987.34" y1="979.43" x2="1006.19" y2="979.43"/><line class="cls-4" x1="987.53" y1="976.82" x2="1005.89" y2="976.82"/><line class="cls-4" x1="987.34" y1="974.22" x2="1006.19" y2="974.22"/><line class="cls-4" x1="987.43" y1="1002.82" x2="1006.28" y2="1002.82"/><line class="cls-4" x1="987.53" y1="1008.08" x2="1005.89" y2="1008.08"/><line class="cls-4" x1="987.34" y1="1005.47" x2="1006.19" y2="1005.47"/><line class="cls-4" x1="1023.31" y1="971.35" x2="1049.34" y2="971.35"/><line class="cls-4" x1="1048.8" y1="1000.04" x2="1023.44" y2="1000.04"/><line class="cls-4" x1="1023.18" y1="997.44" x2="1049.21" y2="997.44"/><line class="cls-4" x1="1022.92" y1="994.83" x2="1048.95" y2="994.83"/><line class="cls-4" x1="1023.18" y1="992.23" x2="1049.21" y2="992.23"/><line class="cls-4" x1="1022.92" y1="989.62" x2="1048.95" y2="989.62"/><line class="cls-4" x1="1023.18" y1="987.02" x2="1049.21" y2="987.02"/><line class="cls-4" x1="1022.92" y1="984.41" x2="1048.95" y2="984.41"/><line class="cls-4" x1="1023.44" y1="981.81" x2="1048.8" y2="981.81"/><line class="cls-4" x1="1023.18" y1="979.21" x2="1049.21" y2="979.21"/><line class="cls-4" x1="1023.44" y1="976.6" x2="1048.8" y2="976.6"/><line class="cls-4" x1="1023.18" y1="974" x2="1049.21" y2="974"/><line class="cls-4" x1="1023.31" y1="1002.6" x2="1049.34" y2="1002.6"/><line class="cls-4" x1="1023.44" y1="1007.85" x2="1048.8" y2="1007.85"/><line class="cls-4" x1="1023.18" y1="1005.25" x2="1049.21" y2="1005.25"/><line class="cls-3" x1="381.42" y1="961.22" x2="381.42" y2="1018.51"/><line class="cls-3" x1="392.62" y1="958.61" x2="392.62" y2="1021.12"/><line class="cls-3" x1="369.37" y1="1019.38" x2="369.37" y2="964.69"/><line class="cls-4" x1="382.74" y1="963.23" x2="407.26" y2="963.23"/><line class="cls-4" x1="406.75" y1="991.92" x2="382.86" y2="991.92"/><line class="cls-4" x1="382.62" y1="989.31" x2="407.13" y2="989.31"/><line class="cls-4" x1="382.37" y1="986.71" x2="406.89" y2="986.71"/><line class="cls-4" x1="382.62" y1="984.11" x2="407.13" y2="984.11"/><line class="cls-4" x1="382.37" y1="981.5" x2="406.89" y2="981.5"/><line class="cls-4" x1="382.62" y1="978.9" x2="407.13" y2="978.9"/><line class="cls-4" x1="382.37" y1="976.29" x2="406.89" y2="976.29"/><line class="cls-4" x1="382.86" y1="973.69" x2="406.75" y2="973.69"/><line class="cls-4" x1="382.62" y1="971.08" x2="407.13" y2="971.08"/><line class="cls-4" x1="382.86" y1="968.48" x2="406.75" y2="968.48"/><line class="cls-4" x1="382.62" y1="965.87" x2="407.13" y2="965.87"/><line class="cls-4" x1="382.74" y1="994.48" x2="407.26" y2="994.48"/><line class="cls-4" x1="382.86" y1="999.73" x2="406.75" y2="999.73"/><line class="cls-4" x1="382.62" y1="997.13" x2="407.13" y2="997.13"/><line class="cls-4" x1="406.45" y1="1013.16" x2="382.57" y2="1013.16"/><line class="cls-4" x1="382.32" y1="1010.56" x2="406.84" y2="1010.56"/><line class="cls-4" x1="382.08" y1="1007.96" x2="406.6" y2="1007.96"/><line class="cls-4" x1="382.32" y1="1005.35" x2="406.84" y2="1005.35"/><line class="cls-4" x1="382.08" y1="1002.75" x2="406.6" y2="1002.75"/><line class="cls-4" x1="382.44" y1="1015.73" x2="406.96" y2="1015.73"/><line class="cls-4" x1="381.6" y1="992.6" x2="356.42" y2="992.6"/><line class="cls-4" x1="356.16" y1="990" x2="382.01" y2="990"/><line class="cls-4" x1="355.9" y1="987.39" x2="381.75" y2="987.39"/><line class="cls-4" x1="356.16" y1="984.79" x2="382.01" y2="984.79"/><line class="cls-4" x1="355.9" y1="982.18" x2="381.75" y2="982.18"/><line class="cls-4" x1="356.16" y1="979.58" x2="382.01" y2="979.58"/><line class="cls-4" x1="355.9" y1="976.98" x2="381.75" y2="976.98"/><line class="cls-4" x1="356.42" y1="974.37" x2="381.6" y2="974.37"/><line class="cls-4" x1="356.16" y1="971.77" x2="382.01" y2="971.77"/><line class="cls-4" x1="356.42" y1="969.16" x2="381.6" y2="969.16"/><line class="cls-4" x1="356.16" y1="966.56" x2="382.01" y2="966.56"/><line class="cls-4" x1="356.29" y1="995.16" x2="382.14" y2="995.16"/><line class="cls-4" x1="356.42" y1="1000.41" x2="381.6" y2="1000.41"/><line class="cls-4" x1="356.16" y1="997.81" x2="382.01" y2="997.81"/><line class="cls-4" x1="381.29" y1="1013.85" x2="356.11" y2="1013.85"/><line class="cls-4" x1="355.85" y1="1011.24" x2="381.7" y2="1011.24"/><line class="cls-4" x1="355.59" y1="1008.64" x2="381.44" y2="1008.64"/><line class="cls-4" x1="355.85" y1="1006.04" x2="381.7" y2="1006.04"/><line class="cls-4" x1="355.59" y1="1003.43" x2="381.44" y2="1003.43"/><line class="cls-4" x1="355.98" y1="1016.41" x2="381.83" y2="1016.41"/><line class="cls-3" x1="406.83" y1="1034.57" x2="406.83" y2="1045.86"/><polyline class="cls-3" points="669.88 546.26 822.29 546.26 822.29 611.79"/><line class="cls-3" x1="672.03" y1="545.39" x2="660.13" y2="605.41"/><line class="cls-3" x1="495.34" y1="985" x2="495.34" y2="1034.57"/><polyline class="cls-3" points="355.34 933 406.34 933 406.34 941 495.34 941 495.34 915 438.34 915 438.34 895 347.41 895"/><line class="cls-3" x1="438.34" y1="915" x2="438.34" y2="941"/><line class="cls-3" x1="475.87" y1="915" x2="475.87" y2="940.82"/><line class="cls-3" x1="455.99" y1="915" x2="455.99" y2="941"/><polyline class="cls-3" points="438.34 895 495.34 895 495.34 876"/><line class="cls-3" x1="495.34" y1="857" x2="495.34" y2="739"/><line class="cls-3" x1="495.34" y1="718" x2="495.34" y2="605"/><polyline class="cls-3" points="495.34 584 495.34 527 343.34 527"/><line class="cls-3" x1="340.91" y1="752.15" x2="495.34" y2="752.15"/><line class="cls-3" x1="342.53" y1="613.44" x2="495.34" y2="613.44"/><line class="cls-3" x1="986.34" y1="1010" x2="986.34" y2="940"/><polyline class="cls-3" points="1039.34 518 899.34 518 899.34 565"/><line class="cls-3" x1="899.34" y1="580" x2="899.34" y2="680"/><line class="cls-3" x1="899.34" y1="697" x2="899.34" y2="816"/><polyline class="cls-3" points="899.34 835 899.34 941 1050.9 941"/><polyline class="cls-3" points="886.34 1013 886.34 941 899.34 941"/><polyline class="cls-3" points="886.34 1000 952.34 1000 952.34 941"/><line class="cls-3" x1="952.34" y1="1000" x2="987.53" y2="1000"/><rect class="cls-3" x="346.47" y="376.27" width="72.86" height="24.83"/><line class="cls-3" x1="364.65" y1="376.27" x2="364.65" y2="401.1"/><line class="cls-3" x1="385.05" y1="376.27" x2="385.05" y2="401.1"/><polyline class="cls-3" points="404.56 376.27 404.56 401.1 404.56 420.17 346.47 420.17 346.47 441.89 419.34 441.89 419.34 401.1 723.35 401.1 723.35 441.89 419.34 441.89"/><polyline class="cls-3" points="723.35 441.89 746.09 441.89 746.09 401.1 723.35 401.1"/><polyline class="cls-3" points="746.09 401.1 769.02 401.1 769.02 441.89 746.09 441.89"/><rect class="cls-3" x="769.02" y="401.1" width="53.32" height="40.79"/><line class="cls-3" x1="346.47" y1="376.27" x2="346.47" y2="341.69"/><polyline class="cls-3" points="346.47 325.28 346.47 316.41 419.34 316.41 419.34 376.27"/><polyline class="cls-3" points="346.47 316.41 346.47 254.34 398.79 254.34"/><polyline class="cls-3" points="419.34 316.41 419.34 254.34 412.98 254.34"/><line class="cls-3" x1="419.34" y1="254.34" x2="482.59" y2="254.34"/><polyline class="cls-3" points="504.32 254.34 561.51 254.34 561.51 401.1"/><line class="cls-3" x1="561.51" y1="254.34" x2="620.48" y2="254.34"/><polyline class="cls-3" points="641.77 254.34 696.75 254.34 696.75 401.1"/><line class="cls-3" x1="696.75" y1="254.34" x2="750.84" y2="254.34"/><line class="cls-3" x1="764.59" y1="254.34" x2="827.55" y2="254.34"/><polyline class="cls-3" points="843.07 254.34 854.15 254.34 854.15 335.92"/><line class="cls-3" x1="696.75" y1="326.17" x2="854.15" y2="326.17"/><line class="cls-3" x1="775.45" y1="254.34" x2="775.45" y2="326.17"/><polyline class="cls-3" points="822.34 401.1 822.34 388.69 854.15 388.69 854.15 358.98"/><line class="cls-3" x1="899.34" y1="661.5" x2="1050.9" y2="661.5"/><line class="cls-3" x1="899.34" y1="798" x2="1050.9" y2="798"/><polyline class="cls-3" points="578.02 1034.57 578.02 963.23 633.79 963.23"/><line class="cls-3" x1="648.86" y1="963.23" x2="711.82" y2="963.23"/><line class="cls-3" x1="726.45" y1="963.23" x2="790.3" y2="963.23"/><polyline class="cls-3" points="804.49 963.23 814.25 963.23 814.25 1034.57"/><line class="cls-3" x1="660.13" y1="963.23" x2="660.13" y2="1034.57"/><line class="cls-3" x1="737.1" y1="963.23" x2="737.1" y2="1034.57"/><line class="cls-3" x1="147.72" y1="527.59" x2="147.72" y2="427.04"/><line class="cls-3" x1="147.72" y1="401.1" x2="147.72" y2="290.25"/><line class="cls-3" x1="19.34" y1="377" x2="147.72" y2="377"/><line class="cls-3" x1="147.72" y1="267.42" x2="147.72" y2="218.54"/><line class="cls-3" x1="23.34" y1="236" x2="147.72" y2="236"/><polyline class="cls-3" points="147.72 197.59 147.72 90.84 36.31 90.84"/><polyline class="cls-3" points="127.77 3 127.77 66.9 206.58 66.9 206.58 3"/><polyline class="cls-3" points="264.44 178.63 283.4 178.63 283.4 86.85 183.64 86.85 183.64 178.63 241.5 178.63"/><polyline class="cls-3" points="283.4 86.85 308.34 86.85 308.34 108.8 283.4 108.8"/><polyline class="cls-3" points="283.4 153.69 308.34 153.69 308.34 128.75 283.4 128.75"/><polyline class="cls-3" points="343.34 3 343.34 153.69 355.23 153.69"/><polyline class="cls-3" points="382.9 153.69 504.32 153.69 504.32 3"/><line class="cls-3" x1="504.32" y1="153.69" x2="513.85" y2="153.69"/><polyline class="cls-3" points="534.91 153.69 660.13 153.69 660.13 3"/><line class="cls-3" x1="660.13" y1="153.69" x2="669.62" y2="153.69"/><line class="cls-3" x1="690.43" y1="153.69" x2="809.15" y2="153.69"/><polyline class="cls-3" points="832.09 153.69 854.15 153.69 854.15 3"/><line class="cls-3" x1="775.45" y1="3" x2="775.45" y2="153.69"/><polyline class="cls-3" points="1050.9 380.04 931.85 380.04 931.85 409.08 1005.68 409.08"/><polyline class="cls-3" points="1005.68 380.04 1005.68 425.61 931.85 425.61 931.85 440.02 1039.71 440.02"/><line class="cls-3" x1="950.81" y1="380.04" x2="950.81" y2="409.08"/><line class="cls-3" x1="969.34" y1="380.04" x2="969.34" y2="409.08"/><line class="cls-3" x1="991.38" y1="380.04" x2="991.38" y2="409.08"/><circle class="cls-3" cx="674.08" cy="201.19" r="10.36"/><circle class="cls-3" cx="361.42" cy="201.19" r="10.36"/><polyline class="cls-3" points="931.85 380.04 907.91 380.04 907.91 236"/><path class="cls-3" d="M1087,1213H960.53s17-28.68,0-57.37" transform="translate(-35.66 -977)"/><polyline class="cls-3" points="1051.34 78.34 907.91 78.34 907.91 166.66"/><line class="cls-3" x1="285.05" y1="405.17" x2="233.19" y2="405.18"/><line class="cls-4" x1="236.98" y1="417" x2="236.98" y2="393.57"/><line class="cls-4" x1="280.45" y1="416.88" x2="280.45" y2="393.45"/><line class="cls-4" x1="276.5" y1="417.12" x2="276.5" y2="393.69"/><line class="cls-4" x1="272.56" y1="417.36" x2="272.56" y2="393.93"/><line class="cls-4" x1="268.61" y1="417.12" x2="268.61" y2="393.69"/><line class="cls-4" x1="264.67" y1="417.36" x2="264.67" y2="393.93"/><line class="cls-4" x1="260.72" y1="417.12" x2="260.72" y2="393.69"/><line class="cls-4" x1="256.78" y1="417.36" x2="256.78" y2="393.93"/><line class="cls-4" x1="252.83" y1="416.88" x2="252.83" y2="393.45"/><line class="cls-4" x1="248.89" y1="417.12" x2="248.89" y2="393.69"/><line class="cls-4" x1="244.94" y1="416.88" x2="244.94" y2="393.45"/><line class="cls-4" x1="241" y1="417.12" x2="241" y2="393.69"/><line class="cls-3" x1="286.27" y1="426.8" x2="231.27" y2="426.81"/><line class="cls-4" x1="235.29" y1="438.64" x2="235.29" y2="415.2"/><line class="cls-4" x1="281.39" y1="438.52" x2="281.39" y2="415.08"/><line class="cls-4" x1="277.21" y1="438.76" x2="277.21" y2="415.32"/><line class="cls-4" x1="273.02" y1="438.99" x2="273.02" y2="415.56"/><line class="cls-4" x1="268.84" y1="438.76" x2="268.84" y2="415.32"/><line class="cls-4" x1="264.65" y1="438.99" x2="264.65" y2="415.56"/><line class="cls-4" x1="260.47" y1="438.76" x2="260.47" y2="415.32"/><line class="cls-4" x1="256.28" y1="438.99" x2="256.28" y2="415.56"/><line class="cls-4" x1="252.1" y1="438.52" x2="252.1" y2="415.08"/><line class="cls-4" x1="247.92" y1="438.76" x2="247.92" y2="415.32"/><line class="cls-4" x1="243.73" y1="438.52" x2="243.73" y2="415.08"/><line class="cls-4" x1="239.55" y1="438.76" x2="239.55" y2="415.32"/><line class="cls-3" x1="286.62" y1="417.27" x2="231.62" y2="417.28"/><polyline class="cls-3" points="225.87 441.89 304.35 441.89 304.35 393.45 206.58 393.45 206.58 441.89 177.98 441.89 177.98 341.69 304.35 341.69 304.35 346.34"/><line class="cls-3" x1="244.94" y1="341.69" x2="244.94" y2="393.45"/><polyline class="cls-3" points="177.98 341.69 177.98 232.84 239.55 232.84"/><polyline class="cls-3" points="260.47 232.84 281.39 232.84 281.39 256.44 304.35 256.44 304.35 341.69"/></svg>